.
..............................Site Info...........................

 -   http://www.scenetime.com  *_*   

SceneTime is going to Close sign up on march/1, hurry up! get in before the doors are closed.

     We care to share . Join us on  http://www.scenetime.com 

    Be the first to get new release at  http://www.scenetime.com

        Seed back for speed


...................................NFO:.................................................[pre][IMG]http://i.imgur.com/Es88J.jpg[/IMG]

*******************************************************************************
            War.Of.The.Arrows.2011.DUBBED.BRRip.XviD.AC3-PRESTiGE
*******************************************************************************


[color=red]General Information:[/color]

Complete name                            : War.Of.The.Arrows.2011.DUBBED.BRRip.XviD.AC3-PRESTiGE
Format                                   : AVI
Format/Info                              : Audio Video Interleave
Format profile                           : OpenDML
File size                                : 2.10 GiB
Duration                                 : 2h 2mn
Overall bit rate                         : 2 459 Kbps
Language                                 : English
Subs                                     : English Subs (If needed)
Source                                   : 720p-HDChina Many THANKS
Encoder                                  : akosipalos

[color=lime]iMDB:[/color] http://www.imdb.com/title/tt2025526/

[color=red]Video[/color]

ID                                       : 0
Format                                   : MPEG-4 Visual
Format profile                           : Advanced Simple@L5
Format settings, BVOP                    : 2
Format settings, QPel                    : No
Format settings, GMC                     : No warppoints
Format settings, Matrix                  : Default (H.263)
Codec ID                                 : XVID
Codec ID/Hint                            : XviD
Duration                                 : 2h 2mn
Bit rate                                 : 2 006 Kbps
Width                                    : 720 pixels
Height                                   : 304 pixels
Display aspect ratio                     : 2.35:1
Frame rate                               : 23.976 fps
Color space                              : YUV
Chroma subsampling                       : 4:2:0
Bit depth                                : 8 bits
Scan type                                : Progressive
Compression mode                         : Lossy
Bits/(Pixel*Frame)                       : 0.382
Stream size                              : 1.71 GiB (82%)
Writing library                          : XviD 1.2.1 (UTC 2008-12-04)

[color=red]Audio[/color]

ID                                       : 1
Format                                   : AC-3
Format/Info                              : Audio Coding 3
Mode extension                           : CM (complete main)
Codec ID                                 : 2000
Duration                                 : 2h 2mn
Bit rate mode                            : Constant
Bit rate                                 : 448 Kbps
Channel(s)                               : 6 channels
Channel positions                        : Front: L C R, Side: L R, LFE
Sampling rate                            : 48.0 KHz
Bit depth                                : 16 bits
Compression mode                         : Lossy
Stream size                              : 392 MiB (18%)
Alignment                                : Split accross interleaves
Interleave, duration                     : 500 ms (11.99 video frames)
Interleave, preload duration             : 500 ms


[color=red]Plot:[/color]

During the Second Manchu invasion of Korea in 1636, a village is attacked by Manchurian soldiers. 
They kidnap Ja-In on her wedding day with her childhood sweetheart Seo-Goon. Her brother Nam-Yi, 
a skilled archer and hunter, returns to the village and learns his sister was kidnapped into slavery. 
Nam-Yi has a tragic past; as children he and Ja-In witnessed their father being betrayed and executed 
by King Injo and then they were raised by Seo-Goon's father. Ja-In was sold to Prince Dorgon whose ally, 
Jyusthina, is his best archer, troop leader and commands an elite force of warriors. As Nam-Yi seeks 
to rescue his sister he clashes with Jyusthina and his troops.


[color=red]Screens:[/color]

[IMG]http://i.imgur.com/mVi0T.png[/IMG]
[IMG]http://i.imgur.com/qUTqx.png[/IMG]
[IMG]http://i.imgur.com/1N7Zh.png[/IMG]
[IMG]http://i.imgur.com/4rcV6.png[/IMG]
[IMG]http://i.imgur.com/KJAsB.png[/IMG]


[b][color=red]Release Notes:[/color][/b]

WE DONT RELEASE EVERYTHiNG TO OTHERS SiTES YOU WANT MORE OF OUR STUFF COME FiND US AT .......

WE ARE LOOKING FOR SUPPLiERS BLURAY, CAM, R5, PRE RETAiL DVD GOT SOMETHiNG WE MiGHT LiKE WHEN YOU FiND US TELL US.......


[center][b][color=red]GREETZ:[/color][/b]

Twisted | Bigguy | CTFX | Whitestag13 | THoRN | SANTi | PA4U2C | Jungledave | mtyy
| marsby | cld | Stortrapp | rizal | mannilim | Rock | Ulap | centserick2 |
musikera | Tukmol | rock3r | canislupus | sickie | fun2knytz | lilyrose | Dreamer
 RiZAL Team Release | TRiNiTY | LEGi0N | LEGiTiMATE | HiVE-CM8 | BHRG | DTRG 
  CrEwSaDe | Rx | LKRG | THC | aTLas

[img]http://i824.photobucket.com/albums/zz161/akosipalos/PRESTiGE-3.png[/img]

[b][color=red]PRESTiGE[/color] is the level of respect at which one is regarded by others....RIzE Above Or Sink Below...[/b]
[/center][/pre]